<svg viewBox="0 0 30 30" xmlns="http://www.w3.org/2000/svg" xmlns:xlink="http://www.w3.org/1999/xlink" width="30.000000" height="30.000000" fill="none">
	<rect id="formkit:instagram" width="30.000000" height="30.000000" x="0.000000" y="0.000000" fill="rgb(255,255,255)" fill-opacity="0" />
	<path id="Vector" d="M14.9748 10.0411C12.2152 10.0411 9.99032 12.2873 9.99032 15.0256C9.99032 17.7638 12.2365 20.01 14.9748 20.01C17.713 20.01 19.9593 17.7638 19.9593 15.0256C19.9593 12.2873 17.713 10.0411 14.9748 10.0411ZM29.9496 15.0256C29.9496 12.9505 29.9496 10.9182 29.8426 8.84312C29.7357 6.44716 29.1794 4.3079 27.4253 2.5751C25.6711 0.820914 23.5532 0.264707 21.1572 0.157744C19.0822 0.0507811 17.0499 0.0507812 14.9748 0.0507812C12.8997 0.0507812 10.8674 0.0507811 8.79234 0.157744C6.39637 0.264707 4.25712 0.820914 2.52432 2.5751C0.770132 4.32929 0.213925 6.44716 0.106963 8.84312C-1.04308e-07 10.9182 0 12.9505 0 15.0256C0 17.1007 -1.04308e-07 19.1329 0.106963 21.208C0.213925 23.604 0.770132 25.7432 2.52432 27.476C4.27851 29.2302 6.39637 29.7864 8.79234 29.8934C10.8674 30.0004 12.8997 30.0004 14.9748 30.0004C17.0499 30.0004 19.0822 30.0004 21.1572 29.8934C23.5532 29.7864 25.6925 29.2302 27.4253 27.476C29.1794 25.7218 29.7357 23.604 29.8426 21.208C29.971 19.1543 29.9496 17.1007 29.9496 15.0256ZM14.9748 22.7055C10.7177 22.7055 7.29486 19.2827 7.29486 15.0256C7.29486 10.7685 10.7177 7.34564 14.9748 7.34564C19.2319 7.34564 22.6547 10.7685 22.6547 15.0256C22.6547 19.2827 19.2319 22.7055 14.9748 22.7055ZM22.9756 8.82173C21.9915 8.82173 21.1786 8.03021 21.1786 7.02476C21.1786 6.01931 21.9702 5.22778 22.9756 5.22778C23.9811 5.22778 24.7726 6.01931 24.7726 7.02476C24.778 7.25908 24.7352 7.49202 24.6469 7.70914C24.5586 7.92625 24.4266 8.12291 24.2592 8.28692C24.0952 8.45436 23.8985 8.58634 23.6814 8.67465C23.4643 8.76297 23.2313 8.80575 22.997 8.80034L22.9756 8.82173Z" fill="currentColor" fill-rule="nonzero" />
</svg>
