<svg viewBox="0 0 30 30" xmlns="http://www.w3.org/2000/svg" xmlns:xlink="http://www.w3.org/1999/xlink" width="30.000000" height="30.000000" fill="none">
	<rect id="Логотип_MAX 1" width="30.000000" height="30.000000" x="0.000000" y="0.000000" fill="rgb(255,255,255)" fill-opacity="0" />
	<path id="Subtract" d="M7.49044 0L22.5096 0C26.6464 0 30 3.35358 30 7.49044L30 22.5096C30 26.6464 26.6464 30 22.5096 30L7.49044 30C3.35358 30 0 26.6464 0 22.5096L0 7.49044C0 3.35358 3.35358 0 7.49044 0ZM10.1326 24.7073C11.9503 26.0213 12.996 26.3498 15.2462 26.3498C21.4666 26.3166 26.4856 21.2535 26.4644 15.0331C26.4644 8.715 21.5096 3.58498 15.186 3.58498C8.86792 3.58498 3.5353 8.4741 3.5353 14.9729C3.5353 17.6939 4.039 19.5718 4.48246 21.2581C4.85476 22.6269 5.18326 23.8806 5.18326 25.3643C5.34204 27.3408 8.98288 26.1856 10.1326 24.7073ZM9.33328 14.513C9.86434 11.1733 12.2624 9.0435 15.3393 9.20226L15.3393 9.20776C18.5279 9.3904 20.9827 12.0935 20.858 15.285C20.644 18.4697 17.9198 20.8968 14.7316 20.7435C13.7335 20.6635 12.7741 20.3216 11.9503 19.7525C11.4521 20.2507 10.6527 20.8968 10.3352 20.8201C9.67272 20.6449 8.89528 17.2778 9.33328 14.513Z" fill="currentColor" fill-rule="evenodd" />
</svg>
