<svg viewBox="0 0 30 30" xmlns="http://www.w3.org/2000/svg" xmlns:xlink="http://www.w3.org/1999/xlink" width="30.000000" height="30.000000" fill="none">
	<rect id="cib:telegram" width="30.000000" height="30.000000" x="0.000000" y="0.000000" fill="rgb(255,255,255)" fill-opacity="0" />
	<path id="Vector" d="M14.9748 0C6.70194 0 0 6.70291 0 14.9748C0 23.2467 6.70291 29.9496 14.9748 29.9496C23.2467 29.9496 29.9496 23.2467 29.9496 14.9748C29.9496 6.70291 23.2467 0 14.9748 0ZM22.3298 10.2592L19.872 21.841C19.6904 22.6622 19.2015 22.8612 18.5195 22.4747L14.7758 19.7155L12.9701 21.4545C12.7711 21.6535 12.602 21.8226 12.2156 21.8226L12.4812 18.0123L19.4189 11.7441C19.7213 11.4784 19.3523 11.3277 18.9533 11.5934L10.379 16.9911L6.68359 15.8375C5.88075 15.5844 5.86239 15.0347 6.85266 14.6482L21.2903 9.08052C21.9608 8.83899 22.5462 9.24379 22.3289 10.2582L22.3298 10.2592Z" fill="currentColor" fill-rule="nonzero" />
</svg>
