<svg width="289" height="26" viewBox="0 0 289 26" fill="none" xmlns="http://www.w3.org/2000/svg">
<path d="M10.8107 24.7637H10.9978V25.1378H5.68593V24.7637H5.87296C6.07247 24.7637 6.24704 24.6889 6.39667 24.5393C6.5463 24.3896 6.67099 24.2151 6.77074 24.0156C6.89543 23.8161 6.98272 23.6041 7.03259 23.3796C7.08247 23.1302 7.10741 22.9058 7.10741 22.7063V1.83296H2.76815C2.36914 1.83296 2.02 1.92025 1.72074 2.09481C1.42148 2.26938 1.1721 2.49383 0.972593 2.76815C0.773086 3.01753 0.623457 3.30432 0.523704 3.62852C0.423951 3.92778 0.374074 4.22704 0.374074 4.5263H0V0.44889H16.7959V4.5263H16.4219C16.4219 4.22704 16.372 3.92778 16.2722 3.62852C16.1725 3.30432 16.0228 3.01753 15.8233 2.76815C15.6238 2.49383 15.3744 2.26938 15.0752 2.09481C14.7759 1.92025 14.4268 1.83296 14.0278 1.83296H9.6137V22.7063C9.6137 22.9058 9.63864 23.1302 9.68852 23.3796C9.73839 23.6041 9.81321 23.8161 9.91296 24.0156C10.0377 24.2151 10.1623 24.3896 10.287 24.5393C10.4367 24.6889 10.6112 24.7637 10.8107 24.7637Z" fill="currentColor"/>
<path d="M40.0622 0.0748161C42.0074 0.0748161 43.753 0.423952 45.2992 1.12222C46.8454 1.79556 48.1546 2.71827 49.227 3.89037C50.3243 5.03753 51.1597 6.3842 51.7333 7.93037C52.3318 9.45161 52.6311 11.0477 52.6311 12.7185C52.6311 14.5889 52.2819 16.3096 51.5836 17.8807C50.9103 19.4519 49.9751 20.7985 48.7781 21.9207C47.5811 23.043 46.1845 23.9283 44.5885 24.5767C43.0173 25.2001 41.334 25.5119 39.5385 25.5119C37.6182 25.5119 35.885 25.1627 34.3388 24.4644C32.8176 23.7662 31.5208 22.8435 30.4485 21.6963C29.4011 20.5491 28.5906 19.2274 28.017 17.7311C27.4434 16.2348 27.1566 14.6762 27.1566 13.0552C27.1566 11.4591 27.4434 9.88803 28.017 8.34185C28.5906 6.77074 29.426 5.3742 30.5233 4.15222C31.6455 2.93025 33.0046 1.94519 34.6007 1.19704C36.1967 0.44889 38.0172 0.0748161 40.0622 0.0748161ZM40.0248 24.2026C41.6956 24.1278 43.1545 23.7537 44.4014 23.0804C45.6733 22.3821 46.7332 21.5093 47.5811 20.4619C48.429 19.3895 49.0524 18.2174 49.4514 16.9456C49.8754 15.6737 50.0874 14.4143 50.0874 13.1674C50.0874 11.7958 49.838 10.4117 49.3392 9.01519C48.8404 7.61864 48.1297 6.35926 47.207 5.23704C46.2843 4.08988 45.1745 3.16716 43.8777 2.46889C42.6059 1.74568 41.1719 1.38407 39.5759 1.38407C38.0297 1.38407 36.6456 1.73321 35.4236 2.43148C34.2017 3.10481 33.1543 3.97766 32.2814 5.05C31.4335 6.12235 30.7851 7.31938 30.3362 8.64111C29.8874 9.96284 29.6629 11.2596 29.6629 12.5315C29.6629 13.9031 29.9248 15.2872 30.4485 16.6837C30.9722 18.0553 31.6954 19.3022 32.6181 20.4244C33.5408 21.5467 34.6256 22.4569 35.8725 23.1552C37.1444 23.8535 38.5285 24.2026 40.0248 24.2026Z" fill="currentColor"/>
<path d="M71.5496 24.7637H71.7366V25.1378H66.3873V24.7637H66.5744C66.7739 24.7637 66.9484 24.6889 67.0981 24.5393C67.2477 24.3896 67.3724 24.2151 67.4722 24.0156C67.5968 23.8161 67.6841 23.6041 67.734 23.3796C67.7839 23.1302 67.8088 22.9058 67.8088 22.7063V2.76815C67.8088 2.59358 67.7839 2.39408 67.734 2.16963C67.6841 1.94519 67.5968 1.73321 67.4722 1.5337C67.3724 1.3342 67.2477 1.1721 67.0981 1.04741C66.9484 0.897778 66.7863 0.822964 66.6118 0.822964H66.4247V0.44889H71.774V0.822964H71.587C71.3875 0.822964 71.2129 0.897778 71.0633 1.04741C70.9136 1.1721 70.7765 1.3342 70.6518 1.5337C70.552 1.73321 70.4647 1.94519 70.3899 2.16963C70.34 2.39408 70.3151 2.59358 70.3151 2.76815V11.4467L79.8166 2.02C79.9662 1.84543 80.041 1.64593 80.041 1.42148C80.041 1.02247 79.8914 0.822964 79.5921 0.822964H79.4051V0.44889H83.9688V0.822964H83.7818C83.4326 0.822964 83.071 0.947655 82.697 1.19704C82.3229 1.44642 81.9488 1.75815 81.5747 2.13222L73.7192 9.95037L81.9862 22.4819C82.0112 22.5317 82.1234 22.6814 82.3229 22.9307C82.5224 23.1801 82.7593 23.442 83.0336 23.7163C83.3329 23.9906 83.6571 24.24 84.0062 24.4644C84.3803 24.664 84.7544 24.7637 85.1284 24.7637V25.1378H84.2307C83.4825 25.1378 82.8466 25.1004 82.3229 25.0256C81.8241 24.9258 81.3877 24.7762 81.0136 24.5767C80.6396 24.3772 80.3029 24.1278 80.0036 23.8285C79.7293 23.5293 79.4425 23.1552 79.1433 22.7063L71.8862 11.7459L70.3151 13.3544V22.7063C70.3151 22.9058 70.34 23.1178 70.3899 23.3422C70.4647 23.5667 70.552 23.7911 70.6518 24.0156C70.7515 24.2151 70.8762 24.3896 71.0259 24.5393C71.1755 24.6889 71.3501 24.7637 71.5496 24.7637Z" fill="currentColor"/>
<path d="M112.339 24.7637H112.526C113.124 24.7637 113.424 24.4894 113.424 23.9407C113.424 23.7412 113.386 23.5293 113.311 23.3048L109.945 14.2148H103.398L100.144 23.1552C100.069 23.3547 100.032 23.5417 100.032 23.7163C100.032 24.0405 100.119 24.3023 100.294 24.5019C100.468 24.6764 100.655 24.7637 100.855 24.7637H101.042V25.1378H96.8896V24.7637H97.0766C97.4008 24.7637 97.7125 24.5767 98.0118 24.2026C98.336 23.8036 98.5978 23.3422 98.7973 22.8185L107.364 0L115.743 22.5941C115.917 23.0928 116.154 23.5791 116.454 24.053C116.778 24.5268 117.189 24.7637 117.688 24.7637H117.875V25.1378H112.339V24.7637ZM103.773 12.943H109.533L106.653 5.12482L103.773 12.943Z" fill="currentColor"/>
<path d="M136.581 24.7637H136.768V25.1378H131.457V24.7637H131.644C131.843 24.7637 132.018 24.6889 132.167 24.5393C132.317 24.3896 132.442 24.2151 132.541 24.0156C132.666 23.8161 132.753 23.6041 132.803 23.3796C132.853 23.1302 132.878 22.9058 132.878 22.7063V1.83296H128.539C128.14 1.83296 127.791 1.92025 127.491 2.09481C127.192 2.26938 126.943 2.49383 126.743 2.76815C126.544 3.01753 126.394 3.30432 126.294 3.62852C126.195 3.92778 126.145 4.22704 126.145 4.5263H125.771V0.44889H142.567V4.5263H142.193C142.193 4.22704 142.143 3.92778 142.043 3.62852C141.943 3.30432 141.794 3.01753 141.594 2.76815C141.395 2.49383 141.145 2.26938 140.846 2.09481C140.547 1.92025 140.198 1.83296 139.798 1.83296H135.384V22.7063C135.384 22.9058 135.409 23.1302 135.459 23.3796C135.509 23.6041 135.584 23.8161 135.684 24.0156C135.808 24.2151 135.933 24.3896 136.058 24.5393C136.207 24.6889 136.382 24.7637 136.581 24.7637Z" fill="currentColor"/>
<path d="M155.09 24.7637H155.277C155.476 24.7637 155.651 24.7014 155.8 24.5767C155.95 24.427 156.075 24.2525 156.174 24.053C156.299 23.8535 156.386 23.6415 156.436 23.417C156.511 23.1926 156.549 22.9806 156.549 22.7811V2.76815C156.549 2.59358 156.511 2.39408 156.436 2.16963C156.386 1.94519 156.299 1.73321 156.174 1.5337C156.075 1.3342 155.95 1.1721 155.8 1.04741C155.651 0.897778 155.476 0.822964 155.277 0.822964H155.09V0.44889H160.476V0.822964H160.289C160.09 0.822964 159.915 0.897778 159.766 1.04741C159.616 1.1721 159.491 1.3342 159.391 1.5337C159.292 1.73321 159.204 1.94519 159.13 2.16963C159.08 2.39408 159.055 2.59358 159.055 2.76815V23.7537H167.247C167.721 23.7537 168.132 23.6415 168.481 23.417C168.831 23.1926 169.117 22.9183 169.342 22.5941C169.591 22.2449 169.766 21.8833 169.866 21.5093C169.99 21.1102 170.053 20.7486 170.053 20.4244H170.427V25.1378H155.09V24.7637Z" fill="currentColor"/>
<path d="M183.102 0.44889H188.451V0.822964H188.264C188.09 0.822964 187.928 0.897778 187.778 1.04741C187.628 1.1721 187.504 1.3342 187.404 1.5337C187.304 1.70827 187.217 1.92025 187.142 2.16963C187.092 2.39408 187.067 2.59358 187.067 2.76815V22.7063C187.067 22.9058 187.092 23.1302 187.142 23.3796C187.192 23.6041 187.267 23.8161 187.366 24.0156C187.491 24.2151 187.616 24.3896 187.74 24.5393C187.89 24.6889 188.065 24.7637 188.264 24.7637H188.451V25.1378H183.102V24.7637H183.289C183.488 24.7637 183.663 24.7014 183.813 24.5767C183.962 24.427 184.087 24.2525 184.187 24.053C184.311 23.8285 184.399 23.6041 184.449 23.3796C184.498 23.1302 184.523 22.9058 184.523 22.7063V2.76815C184.523 2.59358 184.498 2.39408 184.449 2.16963C184.399 1.94519 184.311 1.73321 184.187 1.5337C184.087 1.3342 183.962 1.1721 183.813 1.04741C183.663 0.897778 183.488 0.822964 183.289 0.822964H183.102V0.44889Z" fill="currentColor"/>
<path d="M216.812 24.7637H216.999C217.598 24.7637 217.897 24.4894 217.897 23.9407C217.897 23.7412 217.86 23.5293 217.785 23.3048L214.418 14.2148H207.872L204.617 23.1552C204.543 23.3547 204.505 23.5417 204.505 23.7163C204.505 24.0405 204.592 24.3023 204.767 24.5019C204.942 24.6764 205.129 24.7637 205.328 24.7637H205.515V25.1378H201.363V24.7637H201.55C201.874 24.7637 202.186 24.5767 202.485 24.2026C202.809 23.8036 203.071 23.3422 203.271 22.8185L211.837 0L220.216 22.5941C220.391 23.0928 220.628 23.5791 220.927 24.053C221.251 24.5268 221.663 24.7637 222.161 24.7637H222.348V25.1378H216.812V24.7637ZM208.246 12.943H214.007L211.126 5.12482L208.246 12.943Z" fill="currentColor"/>
<path d="M238.989 24.7637H239.176V25.1378H235.024V24.7637H235.211C235.385 24.7637 235.547 24.6889 235.697 24.5393C235.872 24.3896 236.009 24.2151 236.109 24.0156C236.208 23.8161 236.283 23.6041 236.333 23.3796C236.408 23.1302 236.445 22.9058 236.445 22.7063V2.76815C236.445 2.59358 236.42 2.39408 236.37 2.16963C236.345 1.94519 236.283 1.73321 236.183 1.5337C236.084 1.3342 235.946 1.1721 235.772 1.04741C235.597 0.897778 235.385 0.822964 235.136 0.822964H234.949V0.44889H238.727L252.306 21.8459V2.76815C252.306 2.59358 252.269 2.39408 252.194 2.16963C252.144 1.94519 252.057 1.73321 251.932 1.5337C251.832 1.3342 251.707 1.1721 251.558 1.04741C251.408 0.897778 251.234 0.822964 251.034 0.822964H250.847V0.44889H255.037V0.822964H254.85C254.65 0.822964 254.476 0.897778 254.326 1.04741C254.176 1.1721 254.039 1.3342 253.914 1.5337C253.815 1.73321 253.74 1.94519 253.69 2.16963C253.64 2.39408 253.615 2.59358 253.615 2.76815V25.1378H251.296L237.754 3.66593V22.7063C237.754 22.9058 237.779 23.1302 237.829 23.3796C237.879 23.6041 237.954 23.8161 238.054 24.0156C238.178 24.2151 238.316 24.3896 238.465 24.5393C238.615 24.6889 238.789 24.7637 238.989 24.7637Z" fill="currentColor"/>
<path d="M272.952 24.7637H273.139V25.1378H268.987V24.7637H269.174C269.349 24.7637 269.511 24.6889 269.66 24.5393C269.835 24.3896 269.972 24.2151 270.072 24.0156C270.172 23.8161 270.246 23.6041 270.296 23.3796C270.371 23.1302 270.409 22.9058 270.409 22.7063V2.76815C270.409 2.59358 270.384 2.39408 270.334 2.16963C270.309 1.94519 270.246 1.73321 270.147 1.5337C270.047 1.3342 269.91 1.1721 269.735 1.04741C269.561 0.897778 269.349 0.822964 269.099 0.822964H268.912V0.44889H272.69L286.269 21.8459V2.76815C286.269 2.59358 286.232 2.39408 286.157 2.16963C286.107 1.94519 286.02 1.73321 285.895 1.5337C285.795 1.3342 285.671 1.1721 285.521 1.04741C285.371 0.897778 285.197 0.822964 284.997 0.822964H284.81V0.44889H289V0.822964H288.813C288.613 0.822964 288.439 0.897778 288.289 1.04741C288.14 1.1721 288.002 1.3342 287.878 1.5337C287.778 1.73321 287.703 1.94519 287.653 2.16963C287.603 2.39408 287.579 2.59358 287.579 2.76815V25.1378H285.259L271.718 3.66593V22.7063C271.718 22.9058 271.743 23.1302 271.793 23.3796C271.842 23.6041 271.917 23.8161 272.017 24.0156C272.142 24.2151 272.279 24.3896 272.428 24.5393C272.578 24.6889 272.753 24.7637 272.952 24.7637Z" fill="currentColor"/>
</svg>
