<svg width="33" height="33" viewBox="0 0 33 33" fill="none" xmlns="http://www.w3.org/2000/svg">
<path d="M16.4986 24.75L10.2183 15.8812C9.19031 14.6675 8.52832 13.1868 8.30939 11.6113C8.09047 10.0359 8.32363 8.43077 8.98172 6.98275C9.63981 5.53474 10.6957 4.30349 12.0265 3.4324C13.3573 2.56131 14.9082 2.08624 16.4986 2.0625C18.7031 2.08429 20.8092 2.97886 22.3555 4.5503C23.9018 6.12174 24.7623 8.24195 24.7486 10.4466C24.7494 12.3698 24.0947 14.2358 22.8923 15.7369L16.4986 24.75ZM16.4986 4.125C14.8402 4.14404 13.2571 4.82045 12.097 6.0057C10.9369 7.19094 10.2946 8.78813 10.3111 10.4466C10.3189 11.9601 10.8634 13.4218 11.8477 14.5716L16.4986 21.1613L21.2733 14.4375C22.1809 13.3046 22.6788 11.8981 22.6861 10.4466C22.7026 8.78813 22.0603 7.19094 20.9002 6.0057C19.7401 4.82045 18.157 4.14404 16.4986 4.125Z" fill="#FFFFF0"/>
<path d="M16.5 11.3438C17.6391 11.3438 18.5625 10.4203 18.5625 9.28125C18.5625 8.14216 17.6391 7.21875 16.5 7.21875C15.3609 7.21875 14.4375 8.14216 14.4375 9.28125C14.4375 10.4203 15.3609 11.3438 16.5 11.3438Z" fill="#FFFFF0"/>
<path d="M28.875 12.375H26.8125V14.4375H28.875V28.875H4.125V14.4375H6.1875V12.375H4.125C3.57799 12.375 3.05339 12.5923 2.66659 12.9791C2.2798 13.3659 2.0625 13.8905 2.0625 14.4375V28.875C2.0625 29.422 2.2798 29.9466 2.66659 30.3334C3.05339 30.7202 3.57799 30.9375 4.125 30.9375H28.875C29.422 30.9375 29.9466 30.7202 30.3334 30.3334C30.7202 29.9466 30.9375 29.422 30.9375 28.875V14.4375C30.9375 13.8905 30.7202 13.3659 30.3334 12.9791C29.9466 12.5923 29.422 12.375 28.875 12.375Z" fill="#FFFFF0"/>
</svg>
